<?xml version="1.0" encoding="utf-8"?>
<!-- Generator: Adobe Illustrator 25.0.1, SVG Export Plug-In . SVG Version: 6.00 Build 0)  -->
<svg version="1.1" xmlns="http://www.w3.org/2000/svg" xmlns:xlink="http://www.w3.org/1999/xlink" x="0px" y="0px"
	 viewBox="0 0 1948.4 1659.1" style="enable-background:new 0 0 1948.4 1659.1;" xml:space="preserve">
<style type="text/css">
	.st0{display:none;}
	.st1{display:inline;fill:#FEE744;}
	.st2{opacity:0.5;fill:#ABABAB;}
	.st3{fill:#F05024;stroke:#000000;stroke-width:15;stroke-miterlimit:10;}
	.st4{opacity:0.54;fill:#5D1A0C;}
	.st5{fill:#191717;stroke:#000000;stroke-width:15;stroke-miterlimit:10;}
	.st6{display:inline;fill:#F8F5E8;stroke:#000000;stroke-width:28;stroke-miterlimit:10;}
	.st7{display:inline;fill:#F8F5E8;stroke:#000000;stroke-width:45;stroke-miterlimit:10;}
	.st8{display:inline;}
	.st9{fill:#5780C1;}
	.st10{fill:#192233;}
	.st11{display:inline;fill:#8CBFE7;stroke:#000000;stroke-width:14;stroke-miterlimit:10;}
	.st12{display:inline;fill:#5780C1;stroke:#000000;stroke-width:8;stroke-miterlimit:10;}
	.st13{fill:#F1F0F0;stroke:#000000;stroke-width:8;stroke-miterlimit:10;}
	.st14{fill:#5780C1;stroke:#000000;stroke-width:8;stroke-miterlimit:10;}
	.st15{fill:#67665A;stroke:#000000;stroke-width:8;stroke-miterlimit:10;}
	.st16{fill:#ADAD9C;}
	.st17{fill:#0A0B0B;}
	.st18{fill:#67665A;}
	.st19{fill:#ADAD9C;stroke:#000000;stroke-width:8;stroke-miterlimit:10;}
	.st20{fill:#231F20;}
	.st21{opacity:0.73;fill:#383536;}
	.st22{opacity:0.45;fill:#444545;}
	.st23{display:inline;fill:none;stroke:#FFDE0C;stroke-width:10;stroke-linecap:round;stroke-miterlimit:10;}
	.st24{fill:#FEDE01;stroke:#C1AD56;stroke-width:3;stroke-miterlimit:10;}
	.st25{fill:#F8F5E8;stroke:#000000;stroke-width:45;stroke-miterlimit:10;}
	.st26{opacity:0.75;fill:#DBD6D5;}
	.st27{fill:none;stroke:#000000;stroke-width:45;stroke-miterlimit:10;}
	.st28{display:none;fill:#F8F5E8;stroke:#000000;stroke-width:45;stroke-miterlimit:10;}
	.st29{fill:#6D6B6A;}
	.st30{fill:#F05024;stroke:#000000;stroke-width:30;stroke-miterlimit:10;}
	.st31{fill:none;stroke:#000000;stroke-width:9;stroke-linecap:round;stroke-miterlimit:10;}
	.st32{display:inline;fill:#F05125;}
	.st33{fill:#F37221;}
	.st34{font-family:'GitanLatn-Bd';}
	.st35{font-size:330px;}
</style>
<g id="BG" class="st0">
	<rect x="371.9" y="46.7" class="st1" width="1026.5" height="1026.5"/>
</g>
<g id="Logo">
	<ellipse id="Egg_x5F_under_x5F_shadow" class="st2" cx="966.7" cy="1284.4" rx="305.4" ry="73.2"/>
	<g id="Body1">
		<path id="BirdBody_1_" class="st3" d="M1368.7,654.4c0,227-184,411-411,411s-411-184-411-411s184-555,411-555
			S1368.7,427.4,1368.7,654.4z"/>
		<path id="BirdBody_x5F_Shadow_1_" class="st4" d="M929.6,106.9c0,0-476.3,344.1-179,766c0,0-227.2,15.4-198.8-257.4
			C572.6,415.1,732,126.1,929.6,106.9z"/>
		<g id="Layer_15">
			<path class="st5" d="M814.9,139.1c3.2-14.5,7.5-34.5,125.6-106.4c1.4-0.9,3.2,0.7,2.4,2.2L918,83.5c-0.9,1.7,1.3,3.3,2.7,2
				c18.4-17.9,65.2-71.6,166.3-49.3c1.3,0.3,2.2,1.5,1.4,2.6L1022.2,139c-0.4,0.6-1.2,1.1-1.8,0.7c-27.7-19.5-85.7-60.5-203,1.3
				C816.1,141.6,814.6,140.5,814.9,139.1z"/>
		</g>
	</g>
	<g id="Shell_x5F_Top" class="st0">
		<path class="st6" d="M1102.7,148.3c9,2.8,17.9-4.5,16.4-13.5c-14.4-86.5-97.9-191.7-216.7-188.6c-120,3.1-205,138.9-213.4,229.2
			c-0.7,8,7.4,14,15.3,11.5l38-12.3c2.3-0.7,4.8-0.7,7,0.1l15.3,5.5l70.6-37.8c2.4-1.3,5.2-1.6,7.8-0.8l96.8,30.5l93.7-36.2
			c2.2-0.8,4.6-0.9,6.9-0.2L1102.7,148.3z"/>
		<path class="st7" d="M3225,831.2c0-0.5,0-1.1,0-1.6"/>
	</g>
	<g id="Camera_x5F_blue" class="st0">
		<g id="Button_2_" class="st8">
			<path class="st9" d="M750.8,439.7c-2.3,0-4.2-1.6-4.6-3.9l-2.8-18c-0.4-2.5,1.3-4.9,3.8-5.3l61.6-9.7l0.4,0
				c2.3,0,4.2,1.6,4.6,3.9l3.1,19.8l-1.1,1.6l-1.1,1.5l-1.9,0.3l-61.6,9.7L750.8,439.7z"/>
			<path class="st10" d="M809.3,407.4c0.1,0,0.1,0,0.1,0.1l2.8,18c0,0.1,0,0.1-0.1,0.1l-61.2,9.6c0,0,0,0,0,0c-0.1,0-0.1,0-0.1-0.1
				l-2.8-18c0-0.1,0-0.1,0.1-0.1L809.3,407.4C809.2,407.4,809.3,407.4,809.3,407.4 M809.3,398.4h-0.7l-0.7,0.1l-61.2,9.6
				c-5,0.8-8.4,5.5-7.6,10.4l2.8,18c0.7,4.5,4.5,7.7,9,7.7h0.7l0.7-0.1l61.2-9.6c5-0.8,8.4-5.5,7.6-10.4l-2.8-18
				C817.6,401.6,813.8,398.4,809.3,398.4L809.3,398.4z"/>
		</g>
		<path id="Body_1_" class="st11" d="M1100,628.7L735.4,686c-1.6,0.2-3.1-0.8-3.3-2.4l-37.2-236.6c-0.2-1.6,0.8-3.1,2.4-3.3
			l364.7-57.3c1.6-0.2,3.1,0.8,3.3,2.4l37.2,236.6C1102.7,627,1101.6,628.4,1100,628.7z"/>
		<path id="CenterStripe_2_" class="st12" d="M1092.9,556.3l-373,58.6c-2.2,0.3-4.2-1.1-4.5-3.3l-14.3-91c-0.3-2.2,1.1-4.2,3.3-4.5
			l373-58.6c2.2-0.3,4.2,1.1,4.5,3.3l14.3,91C1096.6,553.9,1095.1,555.9,1092.9,556.3z"/>
		<g id="Lens" class="st8">
			<circle class="st13" cx="898.7" cy="536.2" r="87.2"/>
			<circle class="st14" cx="898.7" cy="536.2" r="62.8"/>
			<circle cx="898.7" cy="536.2" r="40.9"/>
		</g>
		<circle class="st8" cx="991.1" cy="521.3" r="11.5"/>
		<path class="st8" d="M1035.9,438l-29.1,4.6c-3.9,0.6-7.6-2.1-8.2-6l-1.3-8.4c-0.6-3.9,2.1-7.6,6-8.2l29.1-4.6
			c3.9-0.6,7.6,2.1,8.2,6l1.3,8.4C1042.5,433.6,1039.8,437.3,1035.9,438z"/>
		<circle class="st8" cx="754.3" cy="508.2" r="15.9"/>
	</g>
	<g id="Camera">
		<path id="Button_1_" class="st15" d="M794.4,226.7L719.6,242c-5.3,1.1-10.5-2.3-11.6-7.6l-6.3-30.9c-1.1-5.3,2.3-10.5,7.6-11.6
			l74.8-15.3c5.3-1.1,10.5,2.3,11.6,7.6l6.3,30.9C803.1,220.4,799.7,225.6,794.4,226.7z"/>
		<g id="CamBody">
			
				<rect x="578.3" y="193.5" transform="matrix(0.9797 -0.2005 0.2005 0.9797 -69.2731 202.6234)" class="st16" width="774.6" height="499.5"/>
			<path class="st17" d="M1286.8,133.3l96,468.8L644.4,753.3l-96-468.8L1286.8,133.3 M1302.4,108.7c-0.1,0-0.1,0-0.2,0L524.7,267.9
				c-0.5,0.1-0.9,0.6-0.8,1.2l104,508c0.1,0.5,0.5,0.8,1,0.8c0.1,0,0.1,0,0.2,0l777.5-159.1c0.5-0.1,0.9-0.6,0.8-1.2l-104-508
				C1303.3,109,1302.9,108.7,1302.4,108.7L1302.4,108.7z"/>
		</g>
		
			<rect id="CamBody_x5F_Wrap" x="613" y="443" transform="matrix(0.9797 -0.2005 0.2005 0.9797 -92.4829 209.8743)" class="st18" width="753.7" height="237"/>
		<circle id="Lens_x5F_Outer" class="st13" cx="965.6" cy="443.3" r="185.1"/>
		<circle id="Lens_x5F_Middle" class="st19" cx="965.6" cy="443.3" r="127.8"/>
		<g id="Lens_1_">
			<path class="st20" d="M965.6,532.6c-15.1,0-30-3.9-43.3-11.2c-20.9-11.6-36-30.6-42.5-53.5s-3.8-47.1,7.8-67.9
				c15.7-28.4,45.7-46,78.2-46c15.1,0,30,3.9,43.3,11.2c43.1,23.9,58.7,78.4,34.8,121.5C1028,515,998,532.6,965.6,532.6z"/>
			<path d="M965.7,356.4c14.3,0,28.7,3.5,42.1,10.9c41.9,23.3,57.1,76.1,33.8,118.1c-15.9,28.6-45.5,44.7-76,44.7
				c-14.3,0-28.7-3.5-42.1-10.9c-41.9-23.3-57.1-76.1-33.8-118.1C905.6,372.6,935.2,356.4,965.7,356.4 M965.7,351.4v5V351.4
				L965.7,351.4c-33.4,0-64.2,18.1-80.4,47.3c-11.9,21.5-14.7,46.3-8,69.8c6.8,23.6,22.3,43.1,43.7,55c13.6,7.6,29,11.5,44.5,11.5
				c33.4,0,64.2-18.1,80.4-47.3c11.9-21.5,14.7-46.3,8-69.8c-6.8-23.6-22.3-43.1-43.7-55C996.6,355.4,981.2,351.4,965.7,351.4
				L965.7,351.4z"/>
		</g>
		<path id="Lens_x5F_flare" class="st21" d="M1022.2,377.4c-4.4-3.7-9.2-7.1-14.4-10c-41.9-23.3-94.8-8.1-118.1,33.8
			c-20.4,36.7-11.3,81.8,19.5,108.1c-0.5-8.6-2.1-51.9,30.4-89.4C971.4,383.2,1013.3,378.2,1022.2,377.4z"/>
		<path id="Flash" d="M1258.4,228.9l-80.5,16.5c-3,0.6-5.8-1.3-6.5-4.3l-9.4-46.2c-0.6-3,1.3-5.8,4.3-6.5l80.5-16.5
			c3-0.6,5.8,1.3,6.5,4.3l9.4,46.2C1263.2,225.4,1261.3,228.3,1258.4,228.9z"/>
		<circle id="ViewFinder" class="st20" cx="1262.7" cy="445.2" r="33.7"/>
		<g id="Camera_x5F_Depth">
			<path class="st22" d="M1214.6,645.7c0,0,68.9-5.5,116.1-50.5c41.6-39.6,32.4-73.6,35.3-115.4c4.5-63.4,24.1,75,24.1,75l8.7,58
				c0,0-14,10.3-15.2,10c-1.3-0.3-63.1,13.4-63.1,13.4L1214.6,645.7z"/>
		</g>
		<g id="fh" class="st0">
			<line class="st23" x1="1284.9" y1="54.1" x2="1288.2" y2="88.3"/>
			<line class="st23" x1="1362" y1="105.1" x2="1327.3" y2="115.4"/>
			<line class="st23" x1="1341.3" y1="56.2" x2="1316.1" y2="89.1"/>
		</g>
		<g id="Layer_19">
			<path class="st24" d="M1342.2,53l-35.3,37.6c-0.1,0.1-0.1,0.2-0.1,0.2c-0.3,1.7-2.8,18.7,14.7,10c0.1-0.1,0.2-0.1,0.2-0.2
				l21.3-47.1C1343.2,53,1342.5,52.6,1342.2,53z"/>
			<path class="st24" d="M1377.2,104.7l-51.6,1.7c-0.1,0-0.2,0-0.3,0.1c-1.4,1-15.1,11.2,3.3,17.4c0.1,0,0.2,0,0.3,0l48.4-18.2
				C1377.9,105.5,1377.8,104.7,1377.2,104.7z"/>
			<path class="st24" d="M1281.1,39.5l17.5,48.5c0,0.1,0,0.2,0,0.3c-0.4,1.7-4.8,18.2-17.4,3.4c-0.1-0.1-0.1-0.2-0.1-0.3l-1-51.7
				C1280.1,39.1,1280.9,39,1281.1,39.5z"/>
		</g>
		<g id="CamBody_1_">
			<path class="st17" d="M1286.8,133.3l96,468.8L644.4,753.3l-96-468.8L1286.8,133.3 M1302.4,108.7c-0.1,0-0.1,0-0.2,0L524.7,267.9
				c-0.5,0.1-0.9,0.6-0.8,1.2l104,508c0.1,0.5,0.5,0.8,1,0.8c0.1,0,0.1,0,0.2,0l777.5-159.1c0.5-0.1,0.9-0.6,0.8-1.2l-104-508
				C1303.3,109,1302.9,108.7,1302.4,108.7L1302.4,108.7z"/>
		</g>
	</g>
	<g id="Egg_x5F_bottom">
		<path id="Egg_x5F_botom" class="st25" d="M1455.1,713.4c7.9,1.5,13.8,8,14.6,16c2.3,21.3,3.5,42.1,3.5,62.2
			c0,279.4-226.5,505.8-505.8,505.8S461.5,1071,461.5,791.6c0-15.5,0.7-31.4,2.1-47.7c1.1-13.2,15.5-20.8,27.1-14.3l117.3,66.8
			c5,2.9,11.2,3.2,16.4,0.8l136.4-61.5c6.7-3,14.5-1.7,19.9,3.3l73,68.5c5.6,5.3,13.9,6.4,20.8,2.9l287.1-148.9
			c3.6-1.9,7.8-2.5,11.7-1.7L1455.1,713.4z"/>
		<path id="Egg_x5F_Shadow" class="st26" d="M1167.5,683.1c0,0,459.8,33,6.1,545.7l60.8-21.8l88.2-45.1c3.6-1.8,6.8-4.5,9.4-7.7
			c17-21.2,81.7-107.1,99.6-205.8c18.4-101.3,21.7-179.9,22.2-196.2c0.1-2-0.1-4-0.3-6l-1-7.1c-1.9-13.1-11.1-23.5-23-26l-54.5-11.4
			c-0.6-0.1-1.3-0.3-1.9-0.5L1167.5,683.1L1167.5,683.1z"/>
	</g>
	<g id="Layer_17">
		<path id="Egg_x5F_botom_3_" class="st27" d="M1440.1,713.4c7.9,1.5,13.8,8,14.6,16c2.3,21.3,3.5,42.1,3.5,62.2
			c0,279.4-226.5,505.8-505.8,505.8S446.5,1071,446.5,791.6c0-15.5,0.7-31.4,2.1-47.7c1.1-13.2,15.5-20.8,27.1-14.3l117.3,66.8
			c5,2.9,11.2,3.2,16.4,0.8l136.4-61.5c6.7-3,14.5-1.7,19.9,3.3l73,68.5c5.6,5.3,13.9,6.4,20.8,2.9l287.1-148.9
			c3.6-1.9,7.8-2.5,11.7-1.7L1440.1,713.4z"/>
	</g>
	<path id="Top_1_" class="st28" d="M1191.1,74.5c-95.8-120.4-170-177.2-300.3-170.7C760.4-89.8,646.1,6.6,562.7,135.9l123.6,62.3
		l154.6-95.3l169.7,74.1l80.7-86.5L1191.1,74.5z"/>
</g>
<g id="Layer_18" class="st0">
	<g class="st8">
		<path class="st29" d="M965.7-131c48.9,0,97.8,4.7,145.9,14c24,4.7,47.8,10.5,71.2,17.5c23.4,7,46.6,15.1,69.2,24.4
			c90.7,37,174.2,91.8,244.4,160.5c70.3,68.7,127.4,151.2,166.6,241.9c19.6,45.3,34.9,92.7,45.3,141.1c10.4,48.5,16.1,98,17,147.7
			c0.8,49.7-3.1,99.6-12,148.7c-8.9,49.1-22.6,97.4-41.1,144c-18.5,46.5-41.5,91.3-68.9,133.4c-13.7,21.1-28.4,41.4-44.1,61.1
			c-15.7,19.6-32.4,38.5-50,56.5c-17.6,18-36.1,35.1-55.4,51.3c-19.3,16.2-39.4,31.4-60.2,45.6c-20.8,14.2-42.4,27.4-64.5,39.4
			c-22.2,12.1-44.9,23.1-68.2,32.8c-46.5,19.6-95.1,34.5-144.6,44.5c-24.8,5-49.8,8.7-74.9,11.2c-25.1,2.5-50.4,3.7-75.7,3.8
			c-50.5,0-101.1-5-150.6-14.9c-24.8-4.9-49.3-11.2-73.5-18.6c-24.2-7.4-47.9-16-71.2-25.9c-46.6-19.6-91.1-43.9-132.8-72.3
			c-41.7-28.4-80.5-60.9-115.7-96.9c-35.2-36-66.8-75.4-94.1-117.5c-27.4-42.1-50.5-86.9-68.9-133.4c-18.5-46.5-32.2-94.9-41.1-144
			c-8.9-49.1-12.8-99-12-148.7c0.9-49.7,6.6-99.3,17-147.7c10.4-48.5,25.7-95.8,45.3-141.1c39.3-90.7,96.4-173.2,166.7-241.9
			C505.1,16.8,588.6-38.1,679.3-75c22.7-9.2,45.8-17.4,69.2-24.4c23.4-7,47.2-12.8,71.2-17.5C867.8-126.3,916.7-131,965.7-131z
			 M965.7-131c-24.5,0-48.9,1.2-73.2,3.6c-24.3,2.4-48.5,6-72.5,10.8c-24,4.8-47.7,10.8-71.1,18c-23.4,7.2-46.4,15.5-68.9,25
			c-22.5,9.5-44.5,20.1-66,31.8C592.6-30,571.7-17.3,551.6-3.5c-20.2,13.7-39.6,28.5-58.3,44.1c-18.7,15.7-36.6,32.2-53.6,49.6
			c-17,17.4-33.2,35.7-48.3,54.7c-15.2,19-29.4,38.7-42.6,59.1c-26.5,40.7-48.7,84.1-66.6,129.1c-17.8,45-31.1,91.8-39.6,139.3
			c-8.5,47.5-12.3,95.8-11.5,143.9c0.9,48.1,6.4,96,16.6,142.9c10.1,46.9,24.9,92.6,43.9,136.4c38,87.7,93.2,167.4,161.2,233.8
			c68,66.4,148.7,119.4,236.3,155.1c21.9,8.9,44.2,16.8,66.9,23.6c22.7,6.8,45.6,12.4,68.8,16.9c46.4,9,93.7,13.6,141,13.6
			c23.7,0,47.3-1.1,70.8-3.4c23.5-2.3,47-5.6,70.2-10.2c46.4-9,91.9-22.6,135.8-40.5c87.7-35.7,168.4-88.7,236.4-155.1
			c68-66.4,123.3-146.1,161.2-233.8c19-43.8,33.8-89.6,43.9-136.4c10.1-46.8,15.7-94.8,16.5-142.9c0.8-48.1-3-96.4-11.5-143.9
			c-8.6-47.5-21.8-94.3-39.7-139.3c-17.9-45-40.1-88.4-66.6-129.1c-26.4-40.7-57-78.9-91-113.7c-34-34.8-71.6-66.3-111.9-93.8
			c-20.1-13.8-41-26.5-62.4-38.2c-21.4-11.7-43.5-22.3-66-31.8c-22.5-9.5-45.5-17.9-68.9-25c-23.4-7.2-47.1-13.2-71.1-18
			c-24-4.8-48.2-8.5-72.5-10.8C1014.6-129.7,990.1-131,965.7-131z"/>
	</g>
</g>
<g id="Feather">
	<path id="Wing_2_" class="st30" d="M733.4,173.2c0,0,19.8,108.3-4.4,139.9c0,0,27.3,71.9-36.4,90.8c0,0,31.8,70.8-17.9,69.2
		c0,0-21.5,135.1-110.7,109.2c-74.6-21.7-195.6-63.9-130.1-186c20-37.4,19.8-37.3,41.3-66C583.3,186.3,733.4,173.2,733.4,173.2z"/>
	<g id="FeatherShadow">
		<path d="M679.2,458c0,0-18.4,1.2-37.5-4.8s19.5,18.2,19.5,18.2L679.2,458z"/>
		<path d="M689.4,393.2c1.3-2.2,5.4-5.9,2.5-5c-6.1,1.8-26.5-1.5-39.2-2.5c-11.4-0.9,21.3,13.4,25.4,22.3c2,4.4,2.8-0.4,3.8-1.8
			L689.4,393.2z"/>
		<path d="M720.1,304c-0.1-2.6,1.6-7.8-0.4-5.6c-4.2,4.7-52.6,22.8-62.5,34.7c-7.4,8.8,52.8-16.1,60.8-10.6c4,2.7,2.2-1.7,2.3-3.5
			L720.1,304z"/>
	</g>
</g>
<g id="Layer_7">
	<path id="Crack_1_" class="st31" d="M840.6,793.8l11.5,84.8l10.2,15.4l40,60.5l48.2,8.3 M818,985.4l2.6-77.8l31.4-28.9"/>
	<polygon points="828.8,799.1 846.2,878.2 858.7,880.9 873.6,801.6 836.7,784 	"/>
</g>
<g id="Layer_8">
	<polygon points="842.3,858.7 815.8,905.9 823.9,905.6 851.8,879.9 	"/>
	<polygon points="857.8,857.5 905,950.8 854,882.5 	"/>
</g>
<g id="Hair_Mask" class="st0">
	<path class="st32" d="M867.5,83.9l145.1,25.3l2-24l-94.1-24.7c-2.8-0.7-3-7.1-13.9-1.7l-11.7,0.4l-14.3,2.6l-11.9,5.9L867.5,83.9z"
		/>
</g>
<g id="Layer_11">
	<text transform="matrix(1 0 0 1 -27.8858 1650.282)" class="st33 st34 st35">HATCH CAM</text>
</g>
</svg>
